<svg xmlns="http://www.w3.org/2000/svg" viewBox="0 0 512 512" style="height: 512px; width: 512px;"><defs><filter id="shadow-1" height="300%" width="300%" x="-100%" y="-100%"><feFlood flood-color="rgba(225, 29, 29, 1)" result="flood"></feFlood><feComposite in="flood" in2="SourceGraphic" operator="atop" result="composite"></feComposite><feGaussianBlur in="composite" stdDeviation="15" result="blur"></feGaussianBlur><feOffset dx="0" dy="0" result="offset"></feOffset><feComposite in="SourceGraphic" in2="offset" operator="over"></feComposite></filter></defs><g class="" transform="translate(0,3)" style=""><path d="M104.7 25.61L79.29 51.07 202 173.9v312.5h36V158.9zm302.6 0L274 158.9v327.5h36V173.9L432.7 51.07zM66.75 89.66L41.29 115.1 132 205.9v222.5h36V190.9zm378.55 0L344 190.9v237.5h36V205.9l90.7-90.8zM42.75 169.7l-25.46 25.4 42.73 42.8v116.5h36V222.9zm426.55 0L416 222.9v131.5h36V237.9l42.7-42.8z" fill="#eff41f" fill-opacity="1" filter="url(#shadow-1)"></path></g></svg>